<svg width="185" height="46" viewBox="0 0 185 46" fill="none" xmlns="http://www.w3.org/2000/svg">
<path d="M8.85938 28.7891L8.76562 14.7734C7.875 14.2266 6.36719 13.9062 4.24219 13.8125C4.17969 13.5625 4.14844 13.3672 4.14844 13.2266C4.14844 13.1328 4.17969 12.9609 4.24219 12.7109C7.30469 12.3984 9.94531 11.7578 12.1641 10.7891C12.5859 10.9297 12.8594 11.1328 12.9844 11.3984C12.9844 14.9453 13 18.8672 13.0312 23.1641C13.0625 27.4453 13.0781 30.9531 13.0781 33.6875C13.0781 35.1562 12.9688 36.5156 12.75 37.7656C12.5312 39.0156 12.1562 40.2266 11.625 41.3984C11.1094 42.5703 10.3438 43.4922 9.32812 44.1641C8.32812 44.8516 7.11719 45.1953 5.69531 45.1953C4.07031 45.1953 2.73438 44.7344 1.6875 43.8125C0.640625 42.9062 0.117188 41.7656 0.117188 40.3906C0.117188 39.4844 0.390625 38.7344 0.9375 38.1406C1.48438 37.5625 2.21875 37.2734 3.14062 37.2734C3.98438 37.2734 4.64062 37.5 5.10938 37.9531C5.59375 38.4219 5.83594 39.0625 5.83594 39.875C5.83594 40.4375 5.65625 40.9453 5.29688 41.3984C4.95312 41.8672 4.44531 42.1562 3.77344 42.2656C3.97656 43.2031 4.67969 43.6719 5.88281 43.6719C6.89844 43.6719 7.64844 43.2031 8.13281 42.2656C8.61719 41.3438 8.85938 39.7656 8.85938 37.5312V28.7891ZM7.94531 2.91406C7.94531 2.11719 8.22656 1.4375 8.78906 0.875C9.35156 0.3125 10.0312 0.03125 10.8281 0.03125C11.6094 0.03125 12.2812 0.3125 12.8438 0.875C13.4219 1.4375 13.7109 2.11719 13.7109 2.91406C13.7109 3.69531 13.4219 4.375 12.8438 4.95312C12.2812 5.51562 11.6094 5.79688 10.8281 5.79688C10.0312 5.79688 9.35156 5.51562 8.78906 4.95312C8.22656 4.375 7.94531 3.69531 7.94531 2.91406ZM18.1406 12.7109C21.2031 12.3984 23.8438 11.7578 26.0625 10.7891C26.4844 10.9297 26.7578 11.1328 26.8828 11.3984V14.1406C29.2891 11.8438 31.7031 10.6953 34.125 10.6953C36.5312 10.6953 38.4922 11.5938 40.0078 13.3906C41.5234 15.1719 42.2812 17.5859 42.2812 20.6328C42.2812 21.7734 42.1562 22.8984 41.9062 24.0078C41.6562 25.1016 41.2422 26.1797 40.6641 27.2422C40.1016 28.2891 39.3984 29.2109 38.5547 30.0078C37.7266 30.8047 36.6719 31.4531 35.3906 31.9531C34.1094 32.4375 32.6953 32.6797 31.1484 32.6797C29.6953 32.6797 28.2891 32.4062 26.9297 31.8594C26.9297 36.1094 26.9766 39.2422 27.0703 41.2578C27.0859 41.5859 27.2188 41.875 27.4688 42.125C27.7188 42.3906 28.0078 42.5938 28.3359 42.7344C28.6641 42.8906 29.1094 43.0234 29.6719 43.1328C30.2344 43.2578 30.6953 43.3359 31.0547 43.3672C31.4297 43.4141 31.9141 43.4688 32.5078 43.5312C32.6016 43.7188 32.6484 43.9062 32.6484 44.0938C32.6484 44.2812 32.6016 44.4609 32.5078 44.6328C29.2578 44.5234 26.6172 44.4688 24.5859 44.4688C23.0234 44.4688 21.0391 44.5234 18.6328 44.6328C18.5703 44.3516 18.5391 44.1719 18.5391 44.0938C18.5391 44.0312 18.5703 43.8438 18.6328 43.5312C19.1797 43.4531 19.6016 43.3828 19.8984 43.3203C20.1953 43.2578 20.5938 43.1406 21.0938 42.9688C21.5938 42.8125 21.9688 42.5859 22.2188 42.2891C22.4688 42.0078 22.6016 41.6641 22.6172 41.2578C22.6797 39.7266 22.7109 36.2734 22.7109 30.8984C22.7109 28.3984 22.7031 25.3281 22.6875 21.6875C22.6719 18.0469 22.6641 15.7422 22.6641 14.7734C21.7734 14.2266 20.2656 13.9062 18.1406 13.8125C18.0781 13.5625 18.0469 13.3672 18.0469 13.2266C18.0469 13.1328 18.0781 12.9609 18.1406 12.7109ZM31.875 13.7656C30.8594 13.7656 29.9688 13.9531 29.2031 14.3281C28.4375 14.7031 27.6641 15.25 26.8828 15.9688V28.1562C27.8047 30.1406 29.4531 31.1328 31.8281 31.1328C32.2969 31.1328 32.7656 31.0547 33.2344 30.8984C33.7188 30.7422 34.2266 30.4453 34.7578 30.0078C35.2891 29.5703 35.75 29.0156 36.1406 28.3438C36.5469 27.6719 36.8828 26.7656 37.1484 25.625C37.4141 24.4844 37.5469 23.1875 37.5469 21.7344C37.5469 20.2344 37.3516 18.8984 36.9609 17.7266C36.5703 16.5547 35.9375 15.6016 35.0625 14.8672C34.1875 14.1328 33.125 13.7656 31.875 13.7656ZM46.9688 12.7109C50 12.3984 52.6406 11.7578 54.8906 10.7891C55.2812 10.9453 55.5547 11.1484 55.7109 11.3984V15.4297C56.2891 14.3359 57.1484 13.2734 58.2891 12.2422C59.4453 11.2109 60.6484 10.6953 61.8984 10.6953C62.8359 10.6953 63.5938 10.9766 64.1719 11.5391C64.7656 12.0859 65.0625 12.8438 65.0625 13.8125C65.0625 14.7344 64.7891 15.4531 64.2422 15.9688C63.6953 16.4844 63.0078 16.7422 62.1797 16.7422C61.4141 16.7422 60.7812 16.5 60.2812 16.0156C59.7969 15.5156 59.5312 14.8594 59.4844 14.0469C58.8281 14.3281 58.0781 14.9531 57.2344 15.9219C56.4062 16.8906 55.8984 17.8516 55.7109 18.8047C55.7109 22.2891 55.7734 25.6172 55.8984 28.7891C55.9141 29.1953 56.0625 29.5469 56.3438 29.8438C56.625 30.125 57.0391 30.3438 57.5859 30.5C58.1328 30.6562 58.5859 30.7734 58.9453 30.8516C59.3047 30.9141 59.7734 30.9766 60.3516 31.0391C60.4453 31.2266 60.4922 31.4219 60.4922 31.625C60.4922 31.7812 60.4453 31.9531 60.3516 32.1406C58.0078 32.0469 55.6875 32 53.3906 32C51.4844 32 49.5 32.0469 47.4375 32.1406C47.375 31.8906 47.3438 31.7188 47.3438 31.625C47.3438 31.5469 47.375 31.3516 47.4375 31.0391C47.9531 30.9766 48.375 30.9141 48.7031 30.8516C49.0312 30.7734 49.4375 30.6562 49.9219 30.5C50.4062 30.3438 50.7734 30.125 51.0234 29.8438C51.2734 29.5469 51.4062 29.1953 51.4219 28.7891C51.4844 27.2422 51.5156 25.3672 51.5156 23.1641C51.5156 22.4297 51.5078 21.1797 51.4922 19.4141C51.4766 17.6484 51.4688 16.1016 51.4688 14.7734C50.5781 14.2266 49.0781 13.9062 46.9688 13.8125C46.9062 13.5625 46.875 13.3672 46.875 13.2266C46.875 13.1328 46.9062 12.9609 46.9688 12.7109ZM70.2656 16.6016C70.2656 14.8828 71.0469 13.4688 72.6094 12.3594C74.1875 11.25 76.0469 10.6953 78.1875 10.6953C80.8125 10.6953 82.6562 11.2188 83.7188 12.2656C84.7969 13.3125 85.3359 15.0781 85.3359 17.5625V27.2891C85.3359 28.1641 85.6562 28.6016 86.2969 28.6016C86.8125 28.6016 87.4688 27.9766 88.2656 26.7266C88.8281 26.7734 89.2109 27.0234 89.4141 27.4766C89.3047 27.6328 89.1172 27.9141 88.8516 28.3203C88.5859 28.7266 88.3906 29.0156 88.2656 29.1875C88.1406 29.3594 87.9453 29.625 87.6797 29.9844C87.4141 30.3281 87.1953 30.5859 87.0234 30.7578C86.8672 30.9297 86.6484 31.1328 86.3672 31.3672C86.1016 31.6016 85.8516 31.7812 85.6172 31.9062C85.3984 32.0156 85.1406 32.1094 84.8438 32.1875C84.5469 32.2812 84.25 32.3281 83.9531 32.3281C83.1719 32.3281 82.5234 32.0469 82.0078 31.4844C81.5078 30.9219 81.2109 30.0547 81.1172 28.8828C81.1016 28.8984 80.8594 29.125 80.3906 29.5625C79.9219 30 79.5938 30.2969 79.4062 30.4531C79.2344 30.5938 78.8984 30.8516 78.3984 31.2266C77.9141 31.5859 77.5 31.8438 77.1562 32C76.8125 32.1562 76.3828 32.3047 75.8672 32.4453C75.3516 32.6016 74.8438 32.6797 74.3438 32.6797C73.5469 32.6797 72.8359 32.5703 72.2109 32.3516C71.6016 32.1328 71.125 31.8672 70.7812 31.5547C70.4375 31.2422 70.1562 30.8828 69.9375 30.4766C69.7188 30.0547 69.5703 29.6719 69.4922 29.3281C69.4297 28.9844 69.3984 28.6406 69.3984 28.2969C69.3984 27.25 69.5703 26.3672 69.9141 25.6484C70.2734 24.9297 70.9297 24.2578 71.8828 23.6328C72.8516 23.0078 74.0391 22.4531 75.4453 21.9688C76.8516 21.4844 78.7422 20.9375 81.1172 20.3281V17.0703C81.1172 15.4922 80.7656 14.3125 80.0625 13.5312C79.375 12.75 78.4453 12.3594 77.2734 12.3594C76.2266 12.3594 75.3438 12.5703 74.625 12.9922C73.9219 13.3984 73.4922 13.875 73.3359 14.4219C74.8672 14.6562 75.6328 15.4922 75.6328 16.9297C75.6328 17.5859 75.3984 18.1641 74.9297 18.6641C74.4609 19.1641 73.8047 19.4141 72.9609 19.4141C72.2578 19.4141 71.6328 19.1719 71.0859 18.6875C70.5391 18.1875 70.2656 17.4922 70.2656 16.6016ZM81.1172 26.7266V21.8281C79.6797 22.1562 78.4922 22.5156 77.5547 22.9062C76.6172 23.2812 75.8984 23.6953 75.3984 24.1484C74.9141 24.6016 74.5781 25.0703 74.3906 25.5547C74.2031 26.0234 74.1094 26.5703 74.1094 27.1953C74.1094 27.9766 74.3359 28.5938 74.7891 29.0469C75.2578 29.4844 75.8281 29.7031 76.5 29.7031C78.0625 29.7031 79.6016 28.7109 81.1172 26.7266ZM104.812 31.0391C104.906 31.2266 104.953 31.4219 104.953 31.625C104.953 31.7812 104.906 31.9531 104.812 32.1406C102.75 32.0469 100.75 32 98.8125 32C96.9062 32 94.9219 32.0469 92.8594 32.1406C92.7969 31.8906 92.7656 31.7188 92.7656 31.625C92.7656 31.5469 92.7969 31.3516 92.8594 31.0391C93.375 30.9766 93.7969 30.9141 94.125 30.8516C94.4531 30.7734 94.8594 30.6562 95.3438 30.5C95.8281 30.3438 96.1953 30.125 96.4453 29.8438C96.6953 29.5469 96.8281 29.1953 96.8438 28.7891C96.9062 27.2422 96.9375 25.3672 96.9375 23.1641C96.9375 22.4297 96.9297 21.1797 96.9141 19.4141C96.8984 17.6484 96.8906 16.1016 96.8906 14.7734C96 14.2266 94.5 13.9062 92.3906 13.8125C92.3281 13.5625 92.2969 13.3672 92.2969 13.2266C92.2969 13.1328 92.3281 12.9609 92.3906 12.7109C95.4219 12.3984 98.0625 11.7578 100.312 10.7891C100.703 10.9453 100.977 11.1484 101.133 11.3984V15.1016C102.648 13.7734 104.102 12.7109 105.492 11.9141C106.883 11.1016 108.289 10.6953 109.711 10.6953C111.492 10.6953 112.75 11.1953 113.484 12.1953C114.234 13.1953 114.625 14.7578 114.656 16.8828L114.891 28.7891C114.906 29.1953 115.023 29.5469 115.242 29.8438C115.477 30.125 115.805 30.3438 116.227 30.5C116.664 30.6562 117.023 30.7734 117.305 30.8516C117.586 30.9141 117.953 30.9766 118.406 31.0391C118.469 31.3516 118.5 31.5625 118.5 31.6719C118.5 31.7969 118.469 31.9531 118.406 32.1406C116.391 32.0469 114.531 32 112.828 32C111.172 32 109.336 32.0469 107.32 32.1406C107.258 31.8906 107.227 31.7031 107.227 31.5781C107.227 31.4688 107.258 31.2891 107.32 31.0391C107.727 30.9766 108.062 30.9141 108.328 30.8516C108.609 30.7734 108.922 30.6562 109.266 30.5C109.625 30.3438 109.891 30.125 110.062 29.8438C110.25 29.5469 110.344 29.1953 110.344 28.7891L110.391 17.6562C110.391 14.8281 109.539 13.4141 107.836 13.4141C106.242 13.4141 104.008 14.4766 101.133 16.6016C101.133 21.1484 101.195 25.2109 101.32 28.7891C101.336 29.1953 101.453 29.5469 101.672 29.8438C101.906 30.125 102.234 30.3438 102.656 30.5C103.078 30.6562 103.43 30.7734 103.711 30.8516C103.992 30.9141 104.359 30.9766 104.812 31.0391ZM123.703 16.6016C123.703 14.8828 124.484 13.4688 126.047 12.3594C127.625 11.25 129.484 10.6953 131.625 10.6953C134.25 10.6953 136.094 11.2188 137.156 12.2656C138.234 13.3125 138.773 15.0781 138.773 17.5625V27.2891C138.773 28.1641 139.094 28.6016 139.734 28.6016C140.25 28.6016 140.906 27.9766 141.703 26.7266C142.266 26.7734 142.648 27.0234 142.852 27.4766C142.742 27.6328 142.555 27.9141 142.289 28.3203C142.023 28.7266 141.828 29.0156 141.703 29.1875C141.578 29.3594 141.383 29.625 141.117 29.9844C140.852 30.3281 140.633 30.5859 140.461 30.7578C140.305 30.9297 140.086 31.1328 139.805 31.3672C139.539 31.6016 139.289 31.7812 139.055 31.9062C138.836 32.0156 138.578 32.1094 138.281 32.1875C137.984 32.2812 137.688 32.3281 137.391 32.3281C136.609 32.3281 135.961 32.0469 135.445 31.4844C134.945 30.9219 134.648 30.0547 134.555 28.8828C134.539 28.8984 134.297 29.125 133.828 29.5625C133.359 30 133.031 30.2969 132.844 30.4531C132.672 30.5938 132.336 30.8516 131.836 31.2266C131.352 31.5859 130.938 31.8438 130.594 32C130.25 32.1562 129.82 32.3047 129.305 32.4453C128.789 32.6016 128.281 32.6797 127.781 32.6797C126.984 32.6797 126.273 32.5703 125.648 32.3516C125.039 32.1328 124.562 31.8672 124.219 31.5547C123.875 31.2422 123.594 30.8828 123.375 30.4766C123.156 30.0547 123.008 29.6719 122.93 29.3281C122.867 28.9844 122.836 28.6406 122.836 28.2969C122.836 27.25 123.008 26.3672 123.352 25.6484C123.711 24.9297 124.367 24.2578 125.32 23.6328C126.289 23.0078 127.477 22.4531 128.883 21.9688C130.289 21.4844 132.18 20.9375 134.555 20.3281V17.0703C134.555 15.4922 134.203 14.3125 133.5 13.5312C132.812 12.75 131.883 12.3594 130.711 12.3594C129.664 12.3594 128.781 12.5703 128.062 12.9922C127.359 13.3984 126.93 13.875 126.773 14.4219C128.305 14.6562 129.07 15.4922 129.07 16.9297C129.07 17.5859 128.836 18.1641 128.367 18.6641C127.898 19.1641 127.242 19.4141 126.398 19.4141C125.695 19.4141 125.07 19.1719 124.523 18.6875C123.977 18.1875 123.703 17.4922 123.703 16.6016ZM134.555 26.7266V21.8281C133.117 22.1562 131.93 22.5156 130.992 22.9062C130.055 23.2812 129.336 23.6953 128.836 24.1484C128.352 24.6016 128.016 25.0703 127.828 25.5547C127.641 26.0234 127.547 26.5703 127.547 27.1953C127.547 27.9766 127.773 28.5938 128.227 29.0469C128.695 29.4844 129.266 29.7031 129.938 29.7031C131.5 29.7031 133.039 28.7109 134.555 26.7266ZM142.453 11.2109C144.516 11.3047 146.602 11.3516 148.711 11.3516C150.633 11.3516 152.602 11.3047 154.617 11.2109C154.68 11.4609 154.711 11.6562 154.711 11.7969C154.711 11.8906 154.68 12.0625 154.617 12.3125C154.148 12.3438 153.773 12.3828 153.492 12.4297C153.211 12.4609 152.844 12.5234 152.391 12.6172C151.953 12.7109 151.617 12.8516 151.383 13.0391C151.164 13.2266 151.055 13.4531 151.055 13.7188C151.055 13.8594 151.117 14.1484 151.242 14.5859L156 26.4219H156.141L160.664 14.5859C160.82 14.1953 160.898 13.8594 160.898 13.5781C160.898 12.8594 160 12.4375 158.203 12.3125C158.141 12.0625 158.109 11.8906 158.109 11.7969C158.109 11.6562 158.141 11.4609 158.203 11.2109C160.031 11.3047 161.172 11.3516 161.625 11.3516C162.938 11.3516 164.602 11.3047 166.617 11.2109C166.68 11.3984 166.711 11.5625 166.711 11.7031C166.711 11.7969 166.68 12 166.617 12.3125C164.664 12.3906 163.398 13.1484 162.82 14.5859L155.578 31.9062H155.625L153.023 38.7266C152.055 41.2578 151.148 42.9688 150.305 43.8594C149.477 44.75 148.414 45.1953 147.117 45.1953C146.07 45.1953 145.195 44.8828 144.492 44.2578C143.805 43.6328 143.461 42.8125 143.461 41.7969C143.461 40.875 143.719 40.1484 144.234 39.6172C144.75 39.0859 145.391 38.8203 146.156 38.8203C146.859 38.8203 147.398 39.0312 147.773 39.4531C148.164 39.875 148.359 40.3516 148.359 40.8828C148.359 41.6328 148.023 42.2266 147.352 42.6641C147.43 43.0078 147.688 43.1797 148.125 43.1797C148.625 43.1797 149.094 42.8906 149.531 42.3125C149.969 41.75 150.539 40.5391 151.242 38.6797L153.844 32L146.531 14.5859C146.359 14.1953 146.117 13.8594 145.805 13.5781C145.492 13.2812 145.109 13.0547 144.656 12.8984C144.219 12.7266 143.852 12.6094 143.555 12.5469C143.258 12.4688 142.891 12.3906 142.453 12.3125C142.391 12.1875 142.359 12.0156 142.359 11.7969C142.359 11.5625 142.391 11.3672 142.453 11.2109ZM176.602 32.6797C175.836 32.6797 175.141 32.6172 174.516 32.4922C173.906 32.3672 173.43 32.2344 173.086 32.0938C172.758 31.9531 172.312 31.7422 171.75 31.4609C171.141 31.4609 170.242 31.6875 169.055 32.1406C168.852 32.0156 168.711 31.875 168.633 31.7188C168.711 31.4688 168.805 30.6172 168.914 29.1641C169.039 27.7109 169.102 26.4141 169.102 25.2734C169.305 25.1797 169.672 25.1328 170.203 25.1328C170.484 26.0391 170.773 26.8125 171.07 27.4531C171.383 28.0938 171.773 28.7188 172.242 29.3281C172.727 29.9219 173.305 30.375 173.977 30.6875C174.664 30.9844 175.445 31.1328 176.32 31.1328C177.68 31.1328 178.742 30.7812 179.508 30.0781C180.289 29.375 180.68 28.5781 180.68 27.6875C180.68 27.0156 180.57 26.4453 180.352 25.9766C180.133 25.5078 179.641 25.0156 178.875 24.5C178.125 23.9688 177.047 23.4453 175.641 22.9297C174.766 22.6172 174.023 22.3281 173.414 22.0625C172.805 21.7969 172.172 21.4688 171.516 21.0781C170.875 20.6875 170.359 20.2891 169.969 19.8828C169.578 19.4609 169.258 18.9609 169.008 18.3828C168.758 17.8047 168.633 17.1719 168.633 16.4844C168.633 15.9844 168.688 15.4922 168.797 15.0078C168.922 14.5078 169.148 13.9922 169.477 13.4609C169.82 12.9297 170.242 12.4688 170.742 12.0781C171.258 11.6719 171.938 11.3438 172.781 11.0938C173.641 10.8281 174.609 10.6953 175.688 10.6953C176.125 10.6953 176.508 10.7188 176.836 10.7656C177.18 10.8125 177.586 10.8984 178.055 11.0234C178.539 11.1328 178.805 11.1953 178.852 11.2109C179.195 11.1328 179.547 11.0312 179.906 10.9062C180.281 10.7812 180.492 10.7109 180.539 10.6953H181.148C181.523 12.9453 182.008 14.8594 182.602 16.4375C182.414 16.6406 182.109 16.7422 181.688 16.7422C180.391 15.1797 179.281 14.0391 178.359 13.3203C177.453 12.5859 176.422 12.2188 175.266 12.2188C174.359 12.2188 173.562 12.4219 172.875 12.8281C172.188 13.2344 171.844 13.8516 171.844 14.6797C171.844 15.7266 172.258 16.5469 173.086 17.1406C173.93 17.7344 175.484 18.4922 177.75 19.4141C178.797 19.8359 179.617 20.1875 180.211 20.4688C180.82 20.75 181.43 21.0859 182.039 21.4766C182.648 21.8672 183.094 22.2734 183.375 22.6953C183.672 23.1016 183.914 23.5938 184.102 24.1719C184.289 24.75 184.383 25.4219 184.383 26.1875C184.383 27.8438 183.617 29.3438 182.086 30.6875C180.57 32.0156 178.742 32.6797 176.602 32.6797Z" fill="url(#paint0_angular_417_7)"/>
<defs>
<radialGradient id="paint0_angular_417_7" cx="0" cy="0" r="1" gradientUnits="userSpaceOnUse" gradientTransform="translate(96 15) rotate(90) scale(103 28.8932)">
<stop stop-color="#164B99"/>
<stop offset="1" stop-color="#257DFF"/>
</radialGradient>
</defs>
</svg>
