<svg width="51" height="13" viewBox="0 0 51 13" fill="none" xmlns="http://www.w3.org/2000/svg">
<path d="M2.58691 8.13037L2.56152 4.33447C2.32031 4.18636 1.91195 4.09961 1.33643 4.07422C1.3195 4.00651 1.31104 3.95361 1.31104 3.91553C1.31104 3.89014 1.3195 3.84359 1.33643 3.77588C2.16585 3.69124 2.88102 3.51774 3.48193 3.25537C3.59619 3.29346 3.67025 3.34847 3.7041 3.42041C3.7041 4.38102 3.70833 5.4432 3.7168 6.60693C3.72526 7.76644 3.72949 8.71647 3.72949 9.45703C3.72949 9.85482 3.69987 10.223 3.64062 10.5615C3.58138 10.9001 3.47982 11.228 3.33594 11.5454C3.19629 11.8628 2.98893 12.1125 2.71387 12.2944C2.44303 12.4806 2.11507 12.5737 1.72998 12.5737C1.28988 12.5737 0.92806 12.4489 0.644531 12.1992C0.361003 11.9538 0.219238 11.6449 0.219238 11.2725C0.219238 11.027 0.293294 10.8239 0.441406 10.6631C0.589518 10.5065 0.788411 10.4282 1.03809 10.4282C1.2666 10.4282 1.44434 10.4896 1.57129 10.6123C1.70247 10.7393 1.76807 10.9128 1.76807 11.1328C1.76807 11.2852 1.7194 11.4227 1.62207 11.5454C1.52897 11.6724 1.39144 11.7507 1.20947 11.7803C1.26449 12.0342 1.45492 12.1611 1.78076 12.1611C2.05583 12.1611 2.25895 12.0342 2.39014 11.7803C2.52132 11.5306 2.58691 11.1032 2.58691 10.498V8.13037ZM2.33936 1.12256C2.33936 0.906738 2.41553 0.722656 2.56787 0.570312C2.72021 0.417969 2.9043 0.341797 3.12012 0.341797C3.33171 0.341797 3.51367 0.417969 3.66602 0.570312C3.82259 0.722656 3.90088 0.906738 3.90088 1.12256C3.90088 1.33415 3.82259 1.51823 3.66602 1.6748C3.51367 1.82715 3.33171 1.90332 3.12012 1.90332C2.9043 1.90332 2.72021 1.82715 2.56787 1.6748C2.41553 1.51823 2.33936 1.33415 2.33936 1.12256ZM5.10059 3.77588C5.93001 3.69124 6.64518 3.51774 7.24609 3.25537C7.36035 3.29346 7.43441 3.34847 7.46826 3.42041V4.16309C8.11995 3.54102 8.77376 3.22998 9.42969 3.22998C10.0814 3.22998 10.6125 3.47331 11.0229 3.95996C11.4334 4.44238 11.6387 5.09619 11.6387 5.92139C11.6387 6.23031 11.6048 6.53499 11.5371 6.83545C11.4694 7.13167 11.3573 7.42367 11.2007 7.71143C11.0483 7.99495 10.8579 8.24463 10.6294 8.46045C10.4051 8.67627 10.1195 8.85189 9.77246 8.9873C9.42546 9.11849 9.04248 9.18408 8.62354 9.18408C8.22998 9.18408 7.84912 9.11003 7.48096 8.96191C7.48096 10.113 7.49365 10.9614 7.51904 11.5073C7.52327 11.5962 7.55924 11.6745 7.62695 11.7422C7.69466 11.8141 7.77295 11.8691 7.86182 11.9072C7.95068 11.9495 8.07129 11.9855 8.22363 12.0151C8.37598 12.049 8.50081 12.0701 8.59814 12.0786C8.69971 12.0913 8.83089 12.1061 8.9917 12.123C9.01709 12.1738 9.02979 12.2246 9.02979 12.2754C9.02979 12.3262 9.01709 12.3748 8.9917 12.4214C8.11149 12.3918 7.39632 12.377 6.84619 12.377C6.42301 12.377 5.88558 12.3918 5.23389 12.4214C5.21696 12.3452 5.2085 12.2965 5.2085 12.2754C5.2085 12.2585 5.21696 12.2077 5.23389 12.123C5.382 12.1019 5.49626 12.0828 5.57666 12.0659C5.65706 12.049 5.76497 12.0173 5.90039 11.9707C6.03581 11.9284 6.13737 11.867 6.20508 11.7866C6.27279 11.7104 6.30876 11.6174 6.31299 11.5073C6.32992 11.0926 6.33838 10.1574 6.33838 8.70166C6.33838 8.02458 6.33626 7.19303 6.33203 6.20703C6.3278 5.22103 6.32568 4.59684 6.32568 4.33447C6.08447 4.18636 5.67611 4.09961 5.10059 4.07422C5.08366 4.00651 5.0752 3.95361 5.0752 3.91553C5.0752 3.89014 5.08366 3.84359 5.10059 3.77588ZM8.82031 4.06152C8.54525 4.06152 8.30404 4.1123 8.09668 4.21387C7.88932 4.31543 7.67985 4.46354 7.46826 4.6582V7.95898C7.71794 8.49642 8.16439 8.76514 8.80762 8.76514C8.93457 8.76514 9.06152 8.74398 9.18848 8.70166C9.31966 8.65934 9.45719 8.57894 9.60107 8.46045C9.74495 8.34196 9.86979 8.19173 9.97559 8.00977C10.0856 7.8278 10.1766 7.58236 10.2485 7.27344C10.3205 6.96452 10.3564 6.61328 10.3564 6.21973C10.3564 5.81348 10.3035 5.45166 10.1978 5.13428C10.092 4.81689 9.92057 4.55876 9.68359 4.35986C9.44661 4.16097 9.15885 4.06152 8.82031 4.06152ZM12.9082 3.77588C13.7292 3.69124 14.4443 3.51774 15.0537 3.25537C15.1595 3.29769 15.2336 3.3527 15.2759 3.42041V4.51221C15.4325 4.21598 15.6652 3.92822 15.9741 3.64893C16.2873 3.36963 16.6131 3.22998 16.9517 3.22998C17.2056 3.22998 17.4108 3.30615 17.5674 3.4585C17.7282 3.60661 17.8086 3.81185 17.8086 4.07422C17.8086 4.32389 17.7345 4.51855 17.5864 4.6582C17.4383 4.79785 17.2521 4.86768 17.0278 4.86768C16.8205 4.86768 16.6491 4.80208 16.5137 4.6709C16.3825 4.53548 16.3105 4.35775 16.2979 4.1377C16.1201 4.21387 15.917 4.38314 15.6885 4.64551C15.4642 4.90788 15.3267 5.16813 15.2759 5.42627C15.2759 6.36995 15.2928 7.27132 15.3267 8.13037C15.3309 8.2404 15.3711 8.33561 15.4473 8.41602C15.5234 8.49219 15.6356 8.55143 15.7837 8.59375C15.9318 8.63607 16.0545 8.66781 16.1519 8.68896C16.2492 8.70589 16.3761 8.72282 16.5327 8.73975C16.5581 8.79053 16.5708 8.84342 16.5708 8.89844C16.5708 8.94076 16.5581 8.9873 16.5327 9.03809C15.8979 9.0127 15.2695 9 14.6475 9C14.1312 9 13.5938 9.0127 13.0352 9.03809C13.0182 8.97038 13.0098 8.92383 13.0098 8.89844C13.0098 8.87728 13.0182 8.82438 13.0352 8.73975C13.1748 8.72282 13.2891 8.70589 13.3779 8.68896C13.4668 8.66781 13.5768 8.63607 13.708 8.59375C13.8392 8.55143 13.9386 8.49219 14.0063 8.41602C14.0741 8.33561 14.11 8.2404 14.1143 8.13037C14.1312 7.71143 14.1396 7.20361 14.1396 6.60693C14.1396 6.40804 14.1375 6.0695 14.1333 5.59131C14.1291 5.11312 14.127 4.69417 14.127 4.33447C13.8857 4.18636 13.4795 4.09961 12.9082 4.07422C12.8913 4.00651 12.8828 3.95361 12.8828 3.91553C12.8828 3.89014 12.8913 3.84359 12.9082 3.77588ZM19.2178 4.82959C19.2178 4.3641 19.4294 3.98112 19.8525 3.68066C20.2799 3.38021 20.7835 3.22998 21.3633 3.22998C22.0742 3.22998 22.5736 3.37174 22.8613 3.65527C23.1533 3.9388 23.2993 4.41699 23.2993 5.08984V7.72412C23.2993 7.9611 23.3861 8.07959 23.5596 8.07959C23.6992 8.07959 23.877 7.91032 24.0928 7.57178C24.2451 7.58447 24.3488 7.65218 24.4038 7.7749C24.3742 7.81722 24.3234 7.89339 24.2515 8.00342C24.1795 8.11344 24.1266 8.19173 24.0928 8.23828C24.0589 8.28483 24.006 8.35677 23.9341 8.4541C23.8621 8.5472 23.8029 8.61702 23.7563 8.66357C23.714 8.71012 23.6548 8.76514 23.5786 8.82861C23.5067 8.89209 23.439 8.94076 23.3755 8.97461C23.3162 9.00423 23.2464 9.02962 23.166 9.05078C23.0856 9.07617 23.0052 9.08887 22.9248 9.08887C22.7132 9.08887 22.5376 9.0127 22.3979 8.86035C22.2625 8.70801 22.1821 8.47314 22.1567 8.15576C22.1525 8.15999 22.0869 8.22135 21.96 8.33984C21.833 8.45833 21.7441 8.53874 21.6934 8.58105C21.6468 8.61914 21.5558 8.68896 21.4204 8.79053C21.2892 8.88786 21.1771 8.95768 21.084 9C20.9909 9.04232 20.8745 9.08252 20.7349 9.12061C20.5952 9.16292 20.4577 9.18408 20.3223 9.18408C20.1064 9.18408 19.9139 9.15446 19.7446 9.09521C19.5796 9.03597 19.4505 8.96403 19.3574 8.87939C19.2643 8.79476 19.1882 8.69743 19.1289 8.5874C19.0697 8.47314 19.0295 8.36947 19.0083 8.27637C18.9914 8.18327 18.9829 8.09017 18.9829 7.99707C18.9829 7.71354 19.0295 7.47445 19.1226 7.27979C19.2199 7.08512 19.3976 6.90316 19.6558 6.73389C19.9181 6.56462 20.2397 6.41439 20.6206 6.2832C21.0015 6.15202 21.5135 6.00391 22.1567 5.83887V4.95654C22.1567 4.52913 22.0615 4.20964 21.8711 3.99805C21.6849 3.78646 21.4331 3.68066 21.1157 3.68066C20.8322 3.68066 20.5931 3.73779 20.3984 3.85205C20.208 3.96208 20.0916 4.09115 20.0493 4.23926C20.464 4.30273 20.6714 4.52913 20.6714 4.91846C20.6714 5.09619 20.6079 5.25277 20.481 5.38818C20.354 5.5236 20.1763 5.59131 19.9478 5.59131C19.7573 5.59131 19.5881 5.52572 19.4399 5.39453C19.2918 5.25911 19.2178 5.0708 19.2178 4.82959ZM22.1567 7.57178V6.24512C21.7674 6.33398 21.4458 6.43132 21.1919 6.53711C20.938 6.63867 20.7433 6.75081 20.6079 6.87354C20.4767 6.99626 20.3857 7.12321 20.335 7.25439C20.2842 7.38135 20.2588 7.52946 20.2588 7.69873C20.2588 7.91032 20.3201 8.07747 20.4429 8.2002C20.5698 8.31868 20.7243 8.37793 20.9062 8.37793C21.3294 8.37793 21.7463 8.10921 22.1567 7.57178ZM28.5742 8.73975C28.5996 8.79053 28.6123 8.84342 28.6123 8.89844C28.6123 8.94076 28.5996 8.9873 28.5742 9.03809C28.0156 9.0127 27.474 9 26.9492 9C26.4329 9 25.8955 9.0127 25.3369 9.03809C25.32 8.97038 25.3115 8.92383 25.3115 8.89844C25.3115 8.87728 25.32 8.82438 25.3369 8.73975C25.4766 8.72282 25.5908 8.70589 25.6797 8.68896C25.7686 8.66781 25.8786 8.63607 26.0098 8.59375C26.141 8.55143 26.2404 8.49219 26.3081 8.41602C26.3758 8.33561 26.4118 8.2404 26.416 8.13037C26.4329 7.71143 26.4414 7.20361 26.4414 6.60693C26.4414 6.40804 26.4393 6.0695 26.4351 5.59131C26.4308 5.11312 26.4287 4.69417 26.4287 4.33447C26.1875 4.18636 25.7812 4.09961 25.21 4.07422C25.193 4.00651 25.1846 3.95361 25.1846 3.91553C25.1846 3.89014 25.193 3.84359 25.21 3.77588C26.0309 3.69124 26.7461 3.51774 27.3555 3.25537C27.4613 3.29769 27.5353 3.3527 27.5776 3.42041V4.42334C27.9881 4.06364 28.3817 3.77588 28.7583 3.56006C29.1349 3.34001 29.5158 3.22998 29.9009 3.22998C30.3833 3.22998 30.724 3.3654 30.9229 3.63623C31.126 3.90706 31.2318 4.33024 31.2402 4.90576L31.3037 8.13037C31.3079 8.2404 31.3397 8.33561 31.3989 8.41602C31.4624 8.49219 31.5513 8.55143 31.6655 8.59375C31.784 8.63607 31.8813 8.66781 31.9575 8.68896C32.0337 8.70589 32.1331 8.72282 32.2559 8.73975C32.2728 8.82438 32.2812 8.88151 32.2812 8.91113C32.2812 8.94499 32.2728 8.9873 32.2559 9.03809C31.71 9.0127 31.2064 9 30.7451 9C30.2965 9 29.7993 9.0127 29.2534 9.03809C29.2365 8.97038 29.228 8.9196 29.228 8.88574C29.228 8.85612 29.2365 8.80745 29.2534 8.73975C29.3634 8.72282 29.4544 8.70589 29.5264 8.68896C29.6025 8.66781 29.6872 8.63607 29.7803 8.59375C29.8776 8.55143 29.9495 8.49219 29.9961 8.41602C30.0469 8.33561 30.0723 8.2404 30.0723 8.13037L30.085 5.11523C30.085 4.34928 29.8543 3.96631 29.3931 3.96631C28.9614 3.96631 28.3563 4.25407 27.5776 4.82959C27.5776 6.06104 27.5946 7.1613 27.6284 8.13037C27.6326 8.2404 27.6644 8.33561 27.7236 8.41602C27.7871 8.49219 27.876 8.55143 27.9902 8.59375C28.1045 8.63607 28.1997 8.66781 28.2759 8.68896C28.3521 8.70589 28.4515 8.72282 28.5742 8.73975ZM33.6904 4.82959C33.6904 4.3641 33.902 3.98112 34.3252 3.68066C34.7526 3.38021 35.2562 3.22998 35.8359 3.22998C36.5469 3.22998 37.0462 3.37174 37.334 3.65527C37.626 3.9388 37.772 4.41699 37.772 5.08984V7.72412C37.772 7.9611 37.8587 8.07959 38.0322 8.07959C38.1719 8.07959 38.3496 7.91032 38.5654 7.57178C38.7178 7.58447 38.8215 7.65218 38.8765 7.7749C38.8468 7.81722 38.7961 7.89339 38.7241 8.00342C38.6522 8.11344 38.5993 8.19173 38.5654 8.23828C38.5316 8.28483 38.4787 8.35677 38.4067 8.4541C38.3348 8.5472 38.2756 8.61702 38.229 8.66357C38.1867 8.71012 38.1274 8.76514 38.0513 8.82861C37.9793 8.89209 37.9116 8.94076 37.8481 8.97461C37.7889 9.00423 37.7191 9.02962 37.6387 9.05078C37.5583 9.07617 37.4779 9.08887 37.3975 9.08887C37.1859 9.08887 37.0103 9.0127 36.8706 8.86035C36.7352 8.70801 36.6548 8.47314 36.6294 8.15576C36.6252 8.15999 36.5596 8.22135 36.4326 8.33984C36.3057 8.45833 36.2168 8.53874 36.166 8.58105C36.1195 8.61914 36.0285 8.68896 35.8931 8.79053C35.7619 8.88786 35.6497 8.95768 35.5566 9C35.4635 9.04232 35.3472 9.08252 35.2075 9.12061C35.0679 9.16292 34.9303 9.18408 34.7949 9.18408C34.5791 9.18408 34.3866 9.15446 34.2173 9.09521C34.0522 9.03597 33.9232 8.96403 33.8301 8.87939C33.737 8.79476 33.6608 8.69743 33.6016 8.5874C33.5423 8.47314 33.5021 8.36947 33.481 8.27637C33.464 8.18327 33.4556 8.09017 33.4556 7.99707C33.4556 7.71354 33.5021 7.47445 33.5952 7.27979C33.6925 7.08512 33.8703 6.90316 34.1284 6.73389C34.3908 6.56462 34.7124 6.41439 35.0933 6.2832C35.4741 6.15202 35.9862 6.00391 36.6294 5.83887V4.95654C36.6294 4.52913 36.5342 4.20964 36.3438 3.99805C36.1576 3.78646 35.9058 3.68066 35.5884 3.68066C35.3049 3.68066 35.0658 3.73779 34.8711 3.85205C34.6807 3.96208 34.5643 4.09115 34.522 4.23926C34.9367 4.30273 35.144 4.52913 35.144 4.91846C35.144 5.09619 35.0806 5.25277 34.9536 5.38818C34.8267 5.5236 34.6489 5.59131 34.4204 5.59131C34.23 5.59131 34.0607 5.52572 33.9126 5.39453C33.7645 5.25911 33.6904 5.0708 33.6904 4.82959ZM36.6294 7.57178V6.24512C36.2401 6.33398 35.9185 6.43132 35.6646 6.53711C35.4106 6.63867 35.216 6.75081 35.0806 6.87354C34.9494 6.99626 34.8584 7.12321 34.8076 7.25439C34.7568 7.38135 34.7314 7.52946 34.7314 7.69873C34.7314 7.91032 34.7928 8.07747 34.9155 8.2002C35.0425 8.31868 35.1969 8.37793 35.3789 8.37793C35.8021 8.37793 36.2189 8.10921 36.6294 7.57178ZM38.7686 3.36963C39.3271 3.39502 39.8921 3.40771 40.4634 3.40771C40.9839 3.40771 41.5171 3.39502 42.063 3.36963C42.0799 3.43734 42.0884 3.49023 42.0884 3.52832C42.0884 3.55371 42.0799 3.60026 42.063 3.66797C41.936 3.67643 41.8345 3.68701 41.7583 3.69971C41.6821 3.70817 41.5827 3.7251 41.46 3.75049C41.3415 3.77588 41.2505 3.81396 41.187 3.86475C41.1278 3.91553 41.0981 3.97689 41.0981 4.04883C41.0981 4.08691 41.1151 4.1652 41.1489 4.28369L42.4375 7.48926H42.4756L43.7007 4.28369C43.743 4.1779 43.7642 4.08691 43.7642 4.01074C43.7642 3.81608 43.5208 3.70182 43.0342 3.66797C43.0173 3.60026 43.0088 3.55371 43.0088 3.52832C43.0088 3.49023 43.0173 3.43734 43.0342 3.36963C43.5293 3.39502 43.8382 3.40771 43.9609 3.40771C44.3164 3.40771 44.7671 3.39502 45.313 3.36963C45.3299 3.42041 45.3384 3.46484 45.3384 3.50293C45.3384 3.52832 45.3299 3.58333 45.313 3.66797C44.784 3.68913 44.4412 3.89437 44.2847 4.28369L42.3232 8.97461H42.3359L41.6313 10.8218C41.369 11.5073 41.1235 11.9707 40.895 12.2119C40.6707 12.4531 40.383 12.5737 40.0317 12.5737C39.7482 12.5737 39.5112 12.4891 39.3208 12.3198C39.1346 12.1506 39.0415 11.9284 39.0415 11.6533C39.0415 11.4036 39.1113 11.2069 39.251 11.063C39.3906 10.9191 39.5641 10.8472 39.7715 10.8472C39.9619 10.8472 40.1079 10.9043 40.2095 11.0186C40.3153 11.1328 40.3682 11.2619 40.3682 11.4058C40.3682 11.6089 40.2772 11.7697 40.0952 11.8882C40.1164 11.9813 40.1862 12.0278 40.3047 12.0278C40.4401 12.0278 40.5671 11.9495 40.6855 11.793C40.804 11.6406 40.9585 11.3127 41.1489 10.8091L41.8535 9L39.873 4.28369C39.8265 4.1779 39.7609 4.08691 39.6763 4.01074C39.5916 3.93034 39.488 3.86898 39.3652 3.82666C39.2467 3.78011 39.1473 3.74837 39.0669 3.73145C38.9865 3.71029 38.887 3.68913 38.7686 3.66797C38.7516 3.63411 38.7432 3.58757 38.7432 3.52832C38.7432 3.46484 38.7516 3.41195 38.7686 3.36963ZM48.0171 9.18408C47.8097 9.18408 47.6214 9.16715 47.4521 9.1333C47.2871 9.09945 47.158 9.06348 47.0649 9.02539C46.9761 8.9873 46.8555 8.93018 46.7031 8.854C46.5381 8.854 46.2948 8.91536 45.9731 9.03809C45.9181 9.00423 45.88 8.96615 45.8589 8.92383C45.88 8.85612 45.9054 8.62549 45.9351 8.23193C45.9689 7.83838 45.9858 7.48714 45.9858 7.17822C46.0409 7.15283 46.1403 7.14014 46.2842 7.14014C46.3604 7.38558 46.4386 7.59505 46.519 7.76855C46.6037 7.94206 46.7095 8.11133 46.8364 8.27637C46.9676 8.43717 47.1242 8.5599 47.3062 8.64453C47.4924 8.72493 47.7039 8.76514 47.9409 8.76514C48.3091 8.76514 48.5968 8.66992 48.8042 8.47949C49.0158 8.28906 49.1216 8.07324 49.1216 7.83203C49.1216 7.65007 49.092 7.49561 49.0327 7.36865C48.9735 7.2417 48.8402 7.1084 48.6328 6.96875C48.4297 6.82487 48.1377 6.68311 47.7568 6.54346C47.5199 6.45882 47.3188 6.38053 47.1538 6.30859C46.9888 6.23665 46.8174 6.14779 46.6396 6.04199C46.4661 5.9362 46.3265 5.82829 46.2207 5.71826C46.1149 5.604 46.0282 5.46859 45.9604 5.31201C45.8927 5.15544 45.8589 4.98405 45.8589 4.79785C45.8589 4.66243 45.8737 4.52913 45.9033 4.39795C45.9372 4.26253 45.9985 4.12288 46.0874 3.979C46.1805 3.83512 46.2948 3.71029 46.4302 3.60449C46.5698 3.49447 46.7539 3.4056 46.9824 3.33789C47.2152 3.26595 47.4775 3.22998 47.7695 3.22998C47.888 3.22998 47.9917 3.23633 48.0806 3.24902C48.1737 3.26172 48.2837 3.28499 48.4106 3.31885C48.5418 3.34847 48.6138 3.3654 48.6265 3.36963C48.7196 3.34847 48.8148 3.32096 48.9121 3.28711C49.0137 3.25326 49.0708 3.23421 49.0835 3.22998H49.2485C49.3501 3.83936 49.4813 4.35775 49.6421 4.78516C49.5913 4.84017 49.5088 4.86768 49.3945 4.86768C49.0433 4.4445 48.7428 4.13558 48.4932 3.94092C48.2477 3.74202 47.9684 3.64258 47.6553 3.64258C47.4098 3.64258 47.194 3.69759 47.0078 3.80762C46.8216 3.91764 46.7285 4.0848 46.7285 4.30908C46.7285 4.59261 46.8407 4.81478 47.0649 4.97559C47.2935 5.13639 47.7145 5.34163 48.3281 5.59131C48.6117 5.70557 48.8338 5.80078 48.9946 5.87695C49.1597 5.95312 49.3247 6.04411 49.4897 6.1499C49.6548 6.2557 49.7754 6.36572 49.8516 6.47998C49.932 6.59001 49.9976 6.72331 50.0483 6.87988C50.0991 7.03646 50.1245 7.21842 50.1245 7.42578C50.1245 7.87435 49.9172 8.2806 49.5024 8.64453C49.092 9.00423 48.5968 9.18408 48.0171 9.18408Z" fill="url(#paint0_angular_417_7)"/>
<defs>
<radialGradient id="paint0_angular_417_7" cx="0" cy="0" r="1" gradientUnits="userSpaceOnUse" gradientTransform="translate(26 4.5) rotate(90) scale(27.3594 7.76699)">
<stop stop-color="#164B99"/>
<stop offset="1" stop-color="#257DFF"/>
</radialGradient>
</defs>
</svg>
